<?xml version="1.0" standalone="no"?><!DOCTYPE svg PUBLIC "-//W3C//DTD SVG 1.1//EN" "http://www.w3.org/Graphics/SVG/1.1/DTD/svg11.dtd"><svg class="icon" width="200px" height="200.00px" viewBox="0 0 1024 1024" version="1.1" xmlns="http://www.w3.org/2000/svg"><path d="M645.071238 97.52381L828.952381 281.258667V414.47619h48.761905v390.095239h-48.761905v48.761904a73.142857 73.142857 0 0 1-73.142857 73.142857H268.190476a73.142857 73.142857 0 0 1-73.142857-73.142857v-48.761904H146.285714V414.47619h48.761905V170.666667a73.142857 73.142857 0 0 1 73.142857-73.142857h376.880762zM755.809524 804.571429H268.190476v48.761904h487.619048v-48.761904zM460.824381 512h-136.362667v38.278095h85.504L321.828571 665.35619v36.815239h140.921905v-37.790477h-85.504l83.577905-111.713523V512z m68.778667 0h-47.762286v190.171429h47.786667V512z m96.743619 0h-75.239619v190.171429h47.786666v-57.880381h11.922286c11.459048 0 22.918095-1.048381 34.377143-3.120762a112.64 112.64 0 0 0 17.67619-5.266286c4.949333-2.218667 9.557333-4.87619 13.848381-7.899429 7.801905-5.90019 13.628952-13.214476 17.456762-21.991619 3.657143-9.264762 5.485714-18.895238 5.485714-28.94019a78.969905 78.969905 0 0 0-4.778666-25.84381 61.537524 61.537524 0 0 0-14.799238-21.77219 67.486476 67.486476 0 0 0-26.038857-13.872762A126.902857 126.902857 0 0 0 626.346667 512z m-4.559238 38.278095c4.315429 0.146286 8.533333 0.975238 12.678095 2.389334 3.657143 1.438476 6.92419 3.510857 9.776762 6.217142 5.12 5.583238 7.655619 12.117333 7.655619 19.626667 0 7.972571-2.950095 14.57981-8.850286 19.846095-3.169524 2.706286-6.753524 4.705524-10.727619 5.973334a52.053333 52.053333 0 0 1-13.165714 1.682285h-20.284953V550.278095h22.918096zM581.412571 170.642286L268.190476 170.666667v243.809523h487.619048v-49.956571h-174.372572L581.412571 170.666667z m73.142858 39.740952v80.993524h81.042285l-81.042285-80.993524z" fill="#d81e06" /></svg>