<?xml version="1.0" encoding="UTF-8"?>
<svg id="_图层_1" data-name="图层 1" xmlns="http://www.w3.org/2000/svg" xmlns:xlink="http://www.w3.org/1999/xlink" viewBox="0 0 73.9 73.9">
  <defs>
    <style>
      .cls-1 {
        fill: none;
      }

      .cls-2 {
        fill: url(#_未命名的渐变_2);
      }

      .cls-3 {
        fill: url(#_未命名的渐变_3);
      }

      .cls-4 {
        fill: url(#_未命名的渐变);
      }

      .cls-5 {
        fill: #fff;
      }
    </style>
    <linearGradient id="_未命名的渐变" data-name="未命名的渐变" x1="75.06" y1="74.09" x2="9.18" y2="4.63" gradientTransform="translate(0 70.86) scale(1 -1)" gradientUnits="userSpaceOnUse">
      <stop offset="0" stop-color="#e9913e"/>
      <stop offset="1" stop-color="#f20000"/>
    </linearGradient>
    <linearGradient id="_未命名的渐变_2" data-name="未命名的渐变 2" x1="18.69" y1="6.43" x2="34.55" y2="36.29" gradientTransform="translate(0 70.86) scale(1 -1)" gradientUnits="userSpaceOnUse">
      <stop offset=".19" stop-color="#fff"/>
      <stop offset=".4" stop-color="#fdfcfc" stop-opacity=".99"/>
      <stop offset=".51" stop-color="#f9f4f5" stop-opacity=".97"/>
      <stop offset=".6" stop-color="#f3e7e9" stop-opacity=".93"/>
      <stop offset=".67" stop-color="#e9d4d7" stop-opacity=".88"/>
      <stop offset=".74" stop-color="#ddbbc0" stop-opacity=".81"/>
      <stop offset=".81" stop-color="#ce9ca4" stop-opacity=".73"/>
      <stop offset=".87" stop-color="#bc7883" stop-opacity=".63"/>
      <stop offset=".92" stop-color="#a84e5c" stop-opacity=".51"/>
      <stop offset=".97" stop-color="#911f31" stop-opacity=".38"/>
      <stop offset="1" stop-color="#830317" stop-opacity=".3"/>
    </linearGradient>
    <linearGradient id="_未命名的渐变_3" data-name="未命名的渐变 3" x1="60.78" y1="83.13" x2="36.88" y2="20" gradientTransform="translate(0 70.86) scale(1 -1)" gradientUnits="userSpaceOnUse">
      <stop offset=".19" stop-color="#fff"/>
      <stop offset=".4" stop-color="#fdfcfc" stop-opacity=".99"/>
      <stop offset=".51" stop-color="#f9f4f5" stop-opacity=".97"/>
      <stop offset=".6" stop-color="#f3e7e9" stop-opacity=".93"/>
      <stop offset=".67" stop-color="#e9d4d7" stop-opacity=".88"/>
      <stop offset=".74" stop-color="#ddbbc0" stop-opacity=".81"/>
      <stop offset=".81" stop-color="#ce9ca4" stop-opacity=".73"/>
      <stop offset=".87" stop-color="#bc7883" stop-opacity=".63"/>
      <stop offset=".92" stop-color="#a84e5c" stop-opacity=".51"/>
      <stop offset=".97" stop-color="#911f31" stop-opacity=".38"/>
      <stop offset="1" stop-color="#830317" stop-opacity=".3"/>
    </linearGradient>
  </defs>
  <path class="cls-4" d="M57.47,0H16.43C7.36,0,0,7.36,0,16.43v41.04c0,9.07,7.36,16.43,16.43,16.43h41.04c9.07,0,16.43-7.36,16.43-16.43V16.43C73.9,7.36,66.54,0,57.47,0Z"/>
  <path class="cls-2" d="M18.78,28.54c13.53,1.66,23.18,13.9,21.61,27.38,0,.04,0,.1-.01.14,0,.04,0,.08-.02.12-.28,2.23-.86,4.35-1.67,6.33-5.39-.66-10.15-2.99-13.84-6.42.27-.66.51-1.34.72-2.03.41-1.34.71-2.75.89-4.19.22-1.75.24-3.49.09-5.17-.54-6.19-3.42-11.84-7.83-15.93.02-.08.05-.14.09-.22h-.01Z"/>
  <path class="cls-3" d="M55.35,45.36c-13.53-1.66-23.18-13.9-21.61-27.38,0-.04,0-.1.01-.14,0-.04,0-.08.02-.12.28-2.23.86-4.35,1.67-6.33,5.39.66,10.15,2.99,13.84,6.42-.27.66-.51,1.34-.72,2.03-.41,1.34-.71,2.75-.89,4.19-.22,1.75-.24,3.48-.09,5.17.54,6.19,3.42,11.84,7.83,15.93-.02.08-.06.14-.09.22h.01Z"/>
  <path class="cls-5" d="M55.35,45.36c-13.53-1.66-23.18-13.9-21.61-27.38,3.01,5.23,7.89,9.31,13.85,11.23,1.49.49,3.05.83,4.66,1.03,1.47.17,2.92.23,4.34.15.97-.05,1.91-.16,2.86-.31,2.48,4.42,3.62,9.62,2.96,15.03,0,.04,0,.08-.02.12-2.16.36-4.4.42-6.68.18-.15-.02-.27-.03-.37-.04h0Z"/>
  <path class="cls-5" d="M18.78,28.54c13.53,1.66,23.18,13.9,21.61,27.38-3.01-5.23-7.89-9.31-13.85-11.24-1.49-.49-3.05-.83-4.66-1.03-1.47-.17-2.92-.23-4.34-.15-.97.05-1.91.16-2.86.31-2.48-4.42-3.62-9.62-2.96-15.03,0-.04,0-.08.02-.12,2.16-.36,4.4-.42,6.68-.18.13.01.24.02.37.04h0Z"/>
  <rect class="cls-1" x="-108.05" width="290" height="73.9"/>
</svg>